<?xml version="1.0" encoding="iso-8859-1"?>
<!-- Generator: Adobe Illustrator 18.0.0, SVG Export Plug-In . SVG Version: 6.00 Build 0)  -->
<!DOCTYPE svg PUBLIC "-//W3C//DTD SVG 1.1//EN" "http://www.w3.org/Graphics/SVG/1.1/DTD/svg11.dtd">
<svg version="1.1" id="Capa_1" xmlns="http://www.w3.org/2000/svg" xmlns:xlink="http://www.w3.org/1999/xlink" x="0px" y="0px"
	 viewBox="0 0 471.797 471.797" style="enable-background:new 0 0 471.797 471.797;" xml:space="preserve">
<path d="M390.449,459.069c-10.497-18.314-30.112-29.691-51.192-29.691c-12.581,0-24.521,3.901-34.497,11.14
	c-14.252-19.136-35.956-31.56-59.671-34.136l-12.88-45.359c-2.163-7.616-3.565-15.346-4.225-23.088l18.159-14.274l17.245,5.326
	c0.835,0.258,1.68,0.381,2.511,0.381c3.629,0,6.991-2.344,8.119-5.994c1.385-4.485-1.128-9.245-5.613-10.63l-6.011-1.856
	l10.317-8.11c3.69-2.901,4.331-8.245,1.43-11.936c-2.901-3.69-8.245-4.331-11.936-1.43l-34.122,26.821
	c1.887-20.155,8.783-39.752,20.42-56.975c21.387-31.651,28.796-70.812,20.56-108.009l37.634-57.759
	c8.401,17.842,26.547,30.226,47.539,30.226c4.694,0,8.5-3.806,8.5-8.5c0-25.857-18.788-47.394-43.426-51.715
	c10.054-19.729,6.85-44.53-9.633-61.013c-3.319-3.319-8.701-3.319-12.021,0c-20.406,20.406-20.471,53.561-0.207,74.055l-8.78,13.474
	l-5.954-13.973c-1.84-4.319-6.833-6.327-11.152-4.488c-4.318,1.84-6.328,6.833-4.488,11.152l10.421,24.456l-14.022,21.52
	l-8.396-33.585c3.065-13.596,0.689-27.58-6.71-39.403c-7.442-11.892-19.069-20.174-32.74-23.32c-4.57-1.058-9.137,1.802-10.19,6.377
	c-6.014,26.131,8.703,52.269,33.319,61.155l12.952,51.807c7.341,29.365,3.451,60.356-10.591,86.858l-17.898-27.061l6.027-31.547
	c0.881-4.611-2.143-9.063-6.754-9.944c-4.61-0.881-9.063,2.144-9.944,6.754l-2.757,14.433l-6.739-10.189
	c-0.485-13.292-5.879-25.721-15.335-35.176c-9.92-9.92-23.109-15.383-37.137-15.382c-4.694,0-8.5,3.806-8.5,8.5
	c0,27.21,20.802,49.65,47.338,52.261l41.895,63.343c-20.511,33.206-26.173,73.365-15.458,111.099l11.541,40.643
	c-23.978,2.406-45.967,14.886-60.364,34.207c-9.97-7.238-21.907-11.139-34.491-11.139c-21.08,0-40.696,11.377-51.192,29.691
	c-2.334,4.073-0.925,9.267,3.148,11.601c4.073,2.334,9.267,0.925,11.601-3.148c7.475-13.042,21.439-21.144,36.443-21.144
	c11.458,0,22.167,4.549,30.153,12.81c1.857,1.921,4.505,2.855,7.16,2.527c2.651-0.33,4.993-1.887,6.323-4.204
	c12.263-21.364,35.146-34.636,59.717-34.636c24.581,0,47.462,13.271,59.716,34.634c1.329,2.317,3.67,3.875,6.321,4.206
	c2.649,0.331,5.302-0.604,7.16-2.523c7.997-8.263,18.71-12.813,30.167-12.813c15.004,0,28.968,8.102,36.443,21.144
	c1.57,2.74,4.436,4.275,7.382,4.275c1.434,0,2.886-0.363,4.219-1.127C391.374,468.336,392.784,463.142,390.449,459.069z
	 M344.33,105.312c-11.634-3.384-20.825-12.574-24.208-24.208C331.756,84.488,340.947,93.678,344.33,105.312z M303.666,22.482
	c2.868,5.19,4.393,11.05,4.393,17.144c0,6.094-1.525,11.955-4.393,17.145c-2.868-5.19-4.393-11.05-4.393-17.145
	C299.273,33.532,300.798,27.672,303.666,22.482z M226.511,69.377c-3.23-5.161-5.046-10.933-5.37-16.848
	c10.593,5.908,17.493,16.935,18.176,29.044C234.137,78.696,229.74,74.539,226.511,69.377z M160.486,148.868
	c11.634,3.384,20.825,12.575,24.209,24.209C173.061,169.693,163.87,160.502,160.486,148.868z"/>
<g>
</g>
<g>
</g>
<g>
</g>
<g>
</g>
<g>
</g>
<g>
</g>
<g>
</g>
<g>
</g>
<g>
</g>
<g>
</g>
<g>
</g>
<g>
</g>
<g>
</g>
<g>
</g>
<g>
</g>
</svg>
